<?xml version="1.0" encoding="utf-8"?>
<!-- Generator: Adobe Illustrator 21.1.0, SVG Export Plug-In . SVG Version: 6.00 Build 0)  -->
<svg version="1.1" id="Layer_1" xmlns="http://www.w3.org/2000/svg" xmlns:xlink="http://www.w3.org/1999/xlink" x="0px" y="0px"
	 viewBox="0 0 371.3 48.7" style="enable-background:new 0 0 371.3 48.7;" xml:space="preserve">
<style type="text/css">
	.st0{fill:#00AC9D;}
	.st1{fill:#006F60;}
	.st2{fill:#7AC143;}
</style>
<g>
	<g>
		<g id="XMLID_27_">
			<g>
				<path class="st0" d="M49.4,27.8c4.6-3.9,4.2-17.3-0.8-13.8c-7,5-14.2,10.3-18.8,13.1c-7.1,4.2-15.4,7.9-21.5,10
					c-1.7,0.6-2,0.6-2,0.9c0,0.3,0.5,0.3,2,0.3c10.2-0.6,22.2-2.4,32.6-6C45.5,30.7,47.1,29.8,49.4,27.8z"/>
			</g>
		</g>
	</g>
	<g>
		<g id="XMLID_26_">
			<g>
				<path class="st1" d="M51.9,44.9c7.7-3.3,11-16.2,4.5-13.8c-9.1,3.5-21.5,6.4-27.3,7.5c-9.8,1.8-20.2,2-27.2,1.8
					c-1,0-1.8-0.2-1.9,0.2c-0.1,0.3,0.6,0.6,1.6,1.1c8.3,3.9,22.4,6.4,37.5,5.6C46,47,49.2,46,51.9,44.9z"/>
			</g>
		</g>
	</g>
	<g>
		<g id="XMLID_7_">
			<g>
				<path class="st2" d="M40.4,13.4C43.6,6.9,37.8-3,35.7,0.9C32.6,6.8,26.5,15,24.2,18.2c-3.6,4.9-7.7,9.7-11.2,13.3
					c-0.9,0.9-1.5,1.4-1.3,1.6c0.2,0.2,0.6,0,1.6-0.4c7.4-3.4,15.4-7.9,21.6-12.9C38.5,16.8,39.3,15.7,40.4,13.4z"/>
			</g>
		</g>
	</g>
</g>
<path class="st1" d="M240.3,37.9c-2,2-4.1,3.5-6.1,4.6c-2.1,1-4.5,1.5-7.3,1.5c-2.3,0-4.5-0.5-6.5-1.4s-3.7-2.2-5.2-3.7
	c-1-1.1-1.9-2.4-2.6-3.7c-0.2-0.5-0.5-1-0.7-1.5c-0.9-2.2-1.3-4.6-1.3-7.2v-0.1c0-2.6,0.4-5,1.3-7.2c0.2-0.5,0.4-1,0.7-1.5
	c0.7-1.4,1.6-2.6,2.6-3.7c1.5-1.6,3.2-2.8,5.2-3.7s4.2-1.3,6.5-1.3c1.4,0,2.8,0.2,4,0.4c1.2,0.3,2.4,0.7,3.5,1.2c1,0.5,2,1.1,3,1.8
	c0.9,0.7,1.9,1.5,2.7,2.3l0.6,0.6l3.3-3.4l-0.6-0.6c-1.1-1-2.2-1.9-3.3-2.7s-2.4-1.5-3.7-2.1s-2.8-1.1-4.3-1.4s-3.3-0.5-5.1-0.5
	c-3.1,0-5.9,0.6-8.5,1.7s-4.8,2.7-6.7,4.7s-3.4,4.3-4.4,7c-1.1,2.6-1.6,5.5-1.6,8.5v0.1c0,3,0.5,5.9,1.6,8.5c1,2.6,2.5,5,4.4,6.9
	c1.9,2,4.1,3.5,6.7,4.6c2.6,1.1,5.4,1.7,8.4,1.7c1.8,0,3.6-0.2,5.1-0.5c1.6-0.4,3-0.9,4.4-1.5c1.3-0.6,2.6-1.4,3.8-2.3
	c1.2-0.9,2.3-1.9,3.4-2.9l0.6-0.6l-3.2-3.1L240.3,37.9z M265.6,15.9h-0.8c-1.6,0-3.1,0.2-4.5,0.6s-2.7,1.1-3.9,1.9
	c-1.2,0.8-2.3,1.9-3.2,3c-0.3,0.3-0.5,0.7-0.8,1v-6.1h-4.5v31.3h4.5v-13c0-2.3,0.3-4.3,1-6.1c0.7-1.7,1.6-3.2,2.7-4.4
	c1.1-1.2,2.4-2.1,3.8-2.7s3-0.9,4.6-0.9h1.1V15.9z M291,20.4c-1.3-1.5-2.8-2.7-4.6-3.5c-1.8-0.8-3.8-1.3-6-1.3
	c-2.1,0-4.1,0.4-5.9,1.3c-1.8,0.9-3.4,2-4.7,3.5c-1.3,1.5-2.4,3.2-3.1,5.2c-0.8,2-1.1,4.1-1.1,6.3V32c0,2.4,0.4,4.7,1.2,6.7
	c0.8,2,1.9,3.7,3.4,5.2c1.4,1.4,3.1,2.6,4.9,3.3c1.9,0.8,3.8,1.2,5.9,1.2c3,0,5.5-0.6,7.5-1.7c2-1.1,3.8-2.5,5.4-4.2l0.6-0.6
	l-3.2-2.8l-0.5,0.6c-1.2,1.3-2.6,2.3-4.1,3.2c-1.5,0.8-3.3,1.2-5.5,1.2c-1.4,0-2.7-0.2-3.9-0.7c-1.2-0.5-2.4-1.2-3.3-2.1
	c-1-0.9-1.8-2.1-2.5-3.4c-0.5-1.1-0.9-2.4-1.1-3.8h24.4l0.1-0.7c0.1-0.3,0.1-0.5,0.1-0.7V32c0-2.3-0.3-4.4-1-6.4
	C293.2,23.7,292.2,21.9,291,20.4z M270.3,29.8c0.2-1.2,0.5-2.4,1-3.4c0.6-1.3,1.3-2.5,2.2-3.4c0.9-0.9,1.9-1.7,3.1-2.2
	s2.5-0.8,3.8-0.8c1.6,0,3,0.3,4.1,0.9c1.2,0.6,2.2,1.4,3,2.4s1.5,2.1,1.9,3.4c0.4,1,0.6,2.1,0.8,3.3h-19.9V29.8z M324.5,21.2
	c-0.2-0.3-0.5-0.5-0.7-0.8c-0.8-0.9-1.8-1.7-2.8-2.4c-1.1-0.7-2.2-1.3-3.6-1.7c-1.3-0.4-2.8-0.6-4.3-0.6c-1.9,0-3.8,0.4-5.6,1.1
	c-1.8,0.8-3.5,1.9-4.9,3.3s-2.6,3.1-3.5,5.1s-1.3,4.3-1.3,6.8v0.1c0,2.5,0.4,4.8,1.3,6.8s2,3.7,3.5,5.1c1.4,1.4,3.1,2.5,4.9,3.2
	s3.7,1.1,5.6,1.1c1.6,0,3-0.2,4.3-0.7c1.3-0.4,2.5-1,3.5-1.7s2-1.5,2.8-2.5c0.3-0.3,0.5-0.6,0.8-0.9v5h4.5V3.6h-4.5L324.5,21.2
	L324.5,21.2z M324.7,32.1c0,1.8-0.3,3.4-1,4.9c-0.6,1.5-1.5,2.7-2.5,3.8s-2.3,1.9-3.6,2.5c-2.7,1.2-5.7,1.1-8.4,0
	c-1.3-0.6-2.5-1.4-3.5-2.4s-1.8-2.3-2.4-3.8s-0.9-3.2-0.9-5V32c0-1.9,0.3-3.6,0.8-5c0.6-1.5,1.3-2.7,2.3-3.7s2.1-1.8,3.4-2.3
	s2.8-0.8,4.3-0.8c1.4,0,2.9,0.3,4.2,0.9c1.4,0.6,2.6,1.4,3.6,2.4s1.9,2.3,2.5,3.8s1,3.1,1,4.9v-0.1H324.7z M335.9,47.7h4.5V16.4
	h-4.5V47.7z M335.5,10.2h5.2V4.7h-5.2V10.2z M364.6,20.6v-4.2h-10.4V6.9h-4.5v9.5h-4.3v4.2h4.3v18.7c0,1.5,0.2,2.8,0.7,4
	c0.5,1.1,1.1,2.1,2,2.9c0.8,0.8,1.8,1.3,3,1.7c1.1,0.3,2.3,0.5,3.5,0.5c1,0,1.9-0.1,2.7-0.3c0.8-0.2,1.6-0.5,2.5-0.8l0.5-0.2v-4.4
	l-1.1,0.5c-0.8,0.3-1.5,0.6-2.1,0.7c-0.6,0.1-1.2,0.2-1.9,0.2c-1.6,0-2.8-0.4-3.8-1.1c-0.9-0.7-1.3-2-1.3-3.8V20.6H364.6z"/>
<g>
	<path class="st1" d="M92.1,48.7c-12.9,0-22.6-10-22.6-22.6V26c0-12.5,9.4-22.8,22.9-22.8c8.3,0,13.3,2.8,17.3,6.8l-6.2,7.1
		c-3.4-3.1-6.9-5-11.3-5c-7.4,0-12.8,6.2-12.8,13.7v0.1c0,7.5,5.2,13.8,12.8,13.8c5,0,8.1-2,11.6-5.2l6.2,6.2
		C105.6,45.7,100.6,48.7,92.1,48.7z"/>
	<path class="st1" d="M133.4,47.9v-3.6c-2.3,2.6-5.5,4.3-10.2,4.3c-6.3,0-11.6-3.6-11.6-10.3v-0.1c0-7.4,5.6-10.7,13.6-10.7
		c3.4,0,5.8,0.6,8.2,1.4v-0.6c0-4-2.5-6.2-7.2-6.2c-3.6,0-6.2,0.7-9.3,1.8l-2.4-7.3c3.7-1.6,7.4-2.7,13.1-2.7c10.4,0,15,5.4,15,14.5
		v19.5H133.4z M133.6,34.4c-1.6-0.8-3.8-1.3-6.1-1.3c-4.1,0-6.6,1.6-6.6,4.7v0.1c0,2.6,2.1,4.1,5.2,4.1c4.5,0,7.5-2.5,7.5-5.9V34.4z
		"/>
	<path class="st1" d="M166.2,23.6c-6.3,0-10.2,3.8-10.2,11.9v12.4h-9.6V14.2h9.6V21c2-4.7,5.1-7.7,10.8-7.4v10H166.2z"/>
	<path class="st1" d="M200.4,34.4h-23.5c0.9,4.3,4,6.6,8.2,6.6c3.2,0,5.5-1,8.2-3.5l5.5,4.8c-3.1,3.9-7.7,6.3-13.8,6.3
		c-10.1,0-17.6-7.1-17.6-17.4v-0.1c0-9.6,6.9-17.5,16.7-17.5c11.3,0,16.4,8.7,16.4,18.3V32C200.5,33,200.4,33.5,200.4,34.4z
		 M184.1,21.3c-4,0-6.5,2.8-7.3,7.2h14.4C190.6,24.2,188.1,21.3,184.1,21.3z"/>
</g>
<g>
	<path class="st1" d="M371.3,7.5c0,2.2-1.7,3.9-3.9,3.9c-2.2,0-3.9-1.7-3.9-3.9c0-2.1,1.7-3.8,3.9-3.8
		C369.7,3.7,371.3,5.3,371.3,7.5z M364.4,7.5c0,1.8,1.3,3.2,3.1,3.2c1.7,0,3-1.4,3-3.1c0-1.8-1.3-3.2-3-3.2
		C365.7,4.3,364.4,5.7,364.4,7.5z M366.8,9.6h-0.7v-4c0.4-0.1,0.8-0.1,1.4-0.1c0.7,0,1,0.1,1.2,0.3c0.2,0.2,0.4,0.5,0.4,0.9
		c0,0.5-0.4,0.8-0.8,0.9l0,0c0.3,0.1,0.5,0.5,0.6,1c0.1,0.6,0.2,0.8,0.3,1h-0.8c-0.1-0.1-0.2-0.5-0.3-1C368,8.1,367.7,8,367.2,8
		h-0.5L366.8,9.6L366.8,9.6z M366.8,7.3h0.5c0.5,0,1-0.2,1-0.6S368,6,367.3,6c-0.3,0-0.5,0-0.6,0v1.3H366.8z"/>
</g>
</svg>
